# xmcd
#
# Track frame offsets: 
#        150
#        11842
#        24508
#        41343
#        50784
#        63913
#        74097
#        83557
#        97366
#        110698
#        120082
#        131367
#        141932
#        152542
#        163854
#        175806
#        185951
#        197874
#        208931
#        220341
#        231130
#        243991
#
# Disc length: 3387 seconds
#
# Revision: 0
# Processed by: cddbd v1.5.2PL0 Copyright (c) Steve Scherf et al.
# Submitted via: ExactAudioCopy v1.1
#
DISCID=480d3916
DTITLE=Various Artist - All-Time Country Hits - 1960-1964 Disc 1
DYEAR=2009
DGENRE=Country
TTITLE0=Don Gibson - Sea of Heartbreak
TTITLE1=Bill Anderson - Still
TTITLE2=Patsy Cline - Faded Love
TTITLE3=Burl Ives - A little bitty tear
TTITLE4=Marty Robins - Devil Woman
TTITLE5=George Hamilton IV - Abilene
TTITLE6=Frank Ifield - I remember you
TTITLE7=Johnny Cash and June Carter - It ain't me babe
TTITLE8=Hank Locklin - Please help me I'm falling
TTITLE9=Loretta Lynn - Wine, women and song
TTITLE10=Roy Orbison - Blue Bayou
TTITLE11=Leroy van Dyke  - Walk on by
TTITLE12=Ferlin Husky  - Wings of a dove
TTITLE13=Floyd Cramer - Last date
TTITLE14=Jim Reeves - Welcome to my world
TTITLE15=Willie Nelson - Touch me
TTITLE16=Wanda Jackson  - Right or wrong
TTITLE17=Faron Young - Hello walls
TTITLE18=Ray Price - Burning memories
TTITLE19=Skeeter Davis - Gonna get along without you now
TTITLE20=Bobby Bare - Detroit City
TTITLE21=Sonny James - You're the only world I know
EXTD=
EXTT0=
EXTT1=
EXTT2=
EXTT3=
EXTT4=
EXTT5=
EXTT6=
EXTT7=
EXTT8=
EXTT9=
EXTT10=
EXTT11=
EXTT12=
EXTT13=
EXTT14=
EXTT15=
EXTT16=
EXTT17=
EXTT18=
EXTT19=
EXTT20=
EXTT21=
PLAYORDER=
